<?xml version="1.0" encoding="UTF-8"?>
<svg width="138px" height="43px" viewBox="0 0 138 43" version="1.1" xmlns="http://www.w3.org/2000/svg" xmlns:xlink="http://www.w3.org/1999/xlink">
    <!-- Generator: sketchtool 53 (72520) - https://sketchapp.com -->
    <title>FA117AE6-9DC8-4E79-9483-1347B96DAAF8</title>
    <desc>Created with sketchtool.</desc>
    <g id="Portfolio-Website" stroke="none" stroke-width="1" fill="none" fill-rule="evenodd">
        <g id="Desktop" transform="translate(-525.000000, -2440.000000)" fill="#979797" fill-rule="nonzero">
            <g id="About" transform="translate(250.000000, 1927.000000)">
                <g id="Airbnb" transform="translate(275.000000, 513.000000)">
                    <path d="M72.7285714,10.793 C72.7285714,12.341 71.4857143,13.588 69.9428571,13.588 C68.4,13.588 67.1571429,12.341 67.1571429,10.793 C67.1571429,9.245 68.3571429,7.998 69.9428571,7.998 C71.5285714,8.041 72.7285714,9.288 72.7285714,10.793 Z M61.2428571,16.426 C61.2428571,16.684 61.2428571,17.114 61.2428571,17.114 C61.2428571,17.114 59.9142857,15.394 57.0857143,15.394 C52.4142857,15.394 48.7714286,18.963 48.7714286,23.908 C48.7714286,28.81 52.3714286,32.422 57.0857143,32.422 C59.9571429,32.422 61.2428571,30.659 61.2428571,30.659 L61.2428571,31.39 C61.2428571,31.734 61.5,31.992 61.8428571,31.992 L65.3142857,31.992 L65.3142857,15.824 C65.3142857,15.824 62.1428571,15.824 61.8428571,15.824 C61.5,15.824 61.2428571,16.125 61.2428571,16.426 Z M61.2428571,26.789 C60.6,27.735 59.3142857,28.552 57.7714286,28.552 C55.0285714,28.552 52.9285714,26.832 52.9285714,23.908 C52.9285714,20.984 55.0285714,19.264 57.7714286,19.264 C59.2714286,19.264 60.6428571,20.124 61.2428571,21.027 L61.2428571,26.789 Z M67.8857143,15.824 L72,15.824 L72,31.992 L67.8857143,31.992 L67.8857143,15.824 Z M129.342857,15.394 C126.514286,15.394 125.185714,17.114 125.185714,17.114 L125.185714,8.041 L121.071429,8.041 L121.071429,31.992 C121.071429,31.992 124.242857,31.992 124.542857,31.992 C124.885714,31.992 125.142857,31.691 125.142857,31.39 L125.142857,30.659 L125.142857,30.659 C125.142857,30.659 126.471429,32.422 129.3,32.422 C133.971429,32.422 137.614286,28.81 137.614286,23.908 C137.614286,19.006 133.971429,15.394 129.342857,15.394 Z M128.657143,28.509 C127.071429,28.509 125.828571,27.692 125.185714,26.746 L125.185714,20.984 C125.828571,20.124 127.2,19.221 128.657143,19.221 C131.4,19.221 133.5,20.941 133.5,23.865 C133.5,26.789 131.4,28.509 128.657143,28.509 Z M118.928571,22.403 L118.928571,32.035 L114.814286,32.035 L114.814286,22.876 C114.814286,20.21 113.957143,19.135 111.642857,19.135 C110.4,19.135 109.114286,19.78 108.3,20.726 L108.3,31.992 L104.185714,31.992 L104.185714,15.824 L107.442857,15.824 C107.785714,15.824 108.042857,16.125 108.042857,16.426 L108.042857,17.114 C109.242857,15.867 110.828571,15.394 112.414286,15.394 C114.214286,15.394 115.714286,15.91 116.914286,16.942 C118.371429,18.146 118.928571,19.694 118.928571,22.403 Z M94.2,15.394 C91.3714286,15.394 90.0428571,17.114 90.0428571,17.114 L90.0428571,8.041 L85.9285714,8.041 L85.9285714,31.992 C85.9285714,31.992 89.1,31.992 89.4,31.992 C89.7428571,31.992 90,31.691 90,31.39 L90,30.659 L90,30.659 C90,30.659 91.3285714,32.422 94.1571429,32.422 C98.8285714,32.422 102.471429,28.81 102.471429,23.908 C102.514286,19.006 98.8714286,15.394 94.2,15.394 Z M93.5142857,28.509 C91.9285714,28.509 90.6857143,27.692 90.0428571,26.746 L90.0428571,20.984 C90.6857143,20.124 92.0571429,19.221 93.5142857,19.221 C96.2571429,19.221 98.3571429,20.941 98.3571429,23.865 C98.3571429,26.789 96.2571429,28.509 93.5142857,28.509 Z M82.3714286,15.394 C83.6142857,15.394 84.2571429,15.609 84.2571429,15.609 L84.2571429,19.436 C84.2571429,19.436 80.8285714,18.275 78.6857143,20.726 L78.6857143,32.035 L74.5714286,32.035 L74.5714286,15.824 C74.5714286,15.824 77.7428571,15.824 78.0428571,15.824 C78.3857143,15.824 78.6428571,16.125 78.6428571,16.426 L78.6428571,17.114 C79.4142857,16.211 81.0857143,15.394 82.3714286,15.394 Z M39.6428571,30.53 C39.4285714,30.014 39.2142857,29.455 39,28.982 C38.6571429,28.208 38.3142857,27.477 38.0142857,26.789 L37.9714286,26.746 C35.0142857,20.296 31.8428571,13.76 28.5,7.31 L28.3714286,7.052 C28.0285714,6.407 27.6857143,5.719 27.3428571,5.031 C26.9142857,4.257 26.4857143,3.44 25.8,2.666 C24.4285714,0.946 22.4571429,0 20.3571429,0 C18.2142857,0 16.2857143,0.946 14.8714286,2.58 C14.2285714,3.354 13.7571429,4.171 13.3285714,4.945 C12.9857143,5.633 12.6428571,6.321 12.3,6.966 L12.1714286,7.224 C8.87142857,13.674 5.65714286,20.21 2.7,26.66 L2.65714286,26.746 C2.35714286,27.434 2.01428571,28.165 1.67142857,28.939 C1.45714286,29.412 1.24285714,29.928 1.02857143,30.487 C0.471428571,32.078 0.3,33.583 0.514285714,35.131 C0.985714286,38.356 3.12857143,41.065 6.08571429,42.269 C7.2,42.742 8.35714286,42.957 9.55714286,42.957 C9.9,42.957 10.3285714,42.914 10.6714286,42.871 C12.0857143,42.699 13.5428571,42.226 14.9571429,41.409 C16.7142857,40.42 18.3857143,39.001 20.2714286,36.937 C22.1571429,39.001 23.8714286,40.42 25.5857143,41.409 C27,42.226 28.4571429,42.699 29.8714286,42.871 C30.2142857,42.914 30.6428571,42.957 30.9857143,42.957 C32.1857143,42.957 33.3857143,42.742 34.4571429,42.269 C37.4571429,41.065 39.5571429,38.313 40.0285714,35.131 C40.3714286,33.626 40.2,32.121 39.6428571,30.53 Z M20.3142857,32.766 C18,29.842 16.5,27.09 15.9857143,24.768 C15.7714286,23.779 15.7285714,22.919 15.8571429,22.145 C15.9428571,21.457 16.2,20.855 16.5428571,20.339 C17.3571429,19.178 18.7285714,18.447 20.3142857,18.447 C21.9,18.447 23.3142857,19.135 24.0857143,20.339 C24.4285714,20.855 24.6857143,21.457 24.7714286,22.145 C24.9,22.919 24.8571429,23.822 24.6428571,24.768 C24.1285714,27.047 22.6285714,29.799 20.3142857,32.766 Z M37.4142857,34.787 C37.1142857,37.023 35.6142857,38.958 33.5142857,39.818 C32.4857143,40.248 31.3714286,40.377 30.2571429,40.248 C29.1857143,40.119 28.1142857,39.775 27,39.13 C25.4571429,38.27 23.9142857,36.937 22.1142857,34.959 C24.9428571,31.476 26.6571429,28.294 27.3,25.456 C27.6,24.123 27.6428571,22.919 27.5142857,21.801 C27.3428571,20.726 26.9571429,19.737 26.3571429,18.877 C25.0285714,16.942 22.8,15.824 20.3142857,15.824 C17.8285714,15.824 15.6,16.985 14.2714286,18.877 C13.6714286,19.737 13.2857143,20.726 13.1142857,21.801 C12.9428571,22.919 12.9857143,24.166 13.3285714,25.456 C13.9714286,28.294 15.7285714,31.519 18.5142857,35.002 C16.7571429,36.98 15.1714286,38.313 13.6285714,39.173 C12.5142857,39.818 11.4428571,40.162 10.3714286,40.291 C9.21428571,40.42 8.1,40.248 7.11428571,39.861 C5.01428571,39.001 3.51428571,37.066 3.21428571,34.83 C3.08571429,33.755 3.17142857,32.68 3.6,31.476 C3.72857143,31.046 3.94285714,30.616 4.15714286,30.1 C4.45714286,29.412 4.8,28.681 5.14285714,27.95 L5.18571429,27.864 C8.14285714,21.457 11.3142857,14.921 14.6142857,8.557 L14.7428571,8.299 C15.0857143,7.654 15.4285714,6.966 15.7714286,6.321 C16.1142857,5.633 16.5,4.988 16.9714286,4.429 C17.8714286,3.397 19.0714286,2.838 20.4,2.838 C21.7285714,2.838 22.9285714,3.397 23.8285714,4.429 C24.3,4.988 24.6857143,5.633 25.0285714,6.321 C25.3714286,6.966 25.7142857,7.654 26.0571429,8.299 L26.1857143,8.557 C29.4428571,14.964 32.6142857,21.5 35.5714286,27.907 L35.5714286,27.95 C35.9142857,28.638 36.2142857,29.412 36.5571429,30.1 C36.7714286,30.616 36.9857143,31.046 37.1142857,31.476 C37.4571429,32.594 37.5857143,33.669 37.4142857,34.787 Z" id="Shape"></path>
                </g>
            </g>
        </g>
    </g>
</svg>