<?xml version="1.0" encoding="UTF-8"?>
<svg width="129px" height="43px" viewBox="0 0 129 43" version="1.1" xmlns="http://www.w3.org/2000/svg" xmlns:xlink="http://www.w3.org/1999/xlink">
    <!-- Generator: sketchtool 53 (72520) - https://sketchapp.com -->
    <title>4E6048AE-5010-4A2B-AC0A-4B2F2F1CD8D1</title>
    <desc>Created with sketchtool.</desc>
    <g id="Portfolio-Website" stroke="none" stroke-width="1" fill="none" fill-rule="evenodd">
        <g id="Desktop" transform="translate(-250.000000, -2440.000000)" fill="#979797">
            <g id="About" transform="translate(250.000000, 1927.000000)">
                <g id="Google" transform="translate(0.000000, 513.000000)">
                    <path d="M55.3027778,22.5415556 C55.3027778,28.6427778 50.5297778,33.1386667 44.6722222,33.1386667 C38.8146667,33.1386667 34.0416667,28.6427778 34.0416667,22.5415556 C34.0416667,16.3973333 38.8146667,11.9444444 44.6722222,11.9444444 C50.5297778,11.9444444 55.3027778,16.3973333 55.3027778,22.5415556 Z M50.6492222,22.5415556 C50.6492222,18.7288889 47.8828889,16.1202222 44.6722222,16.1202222 C41.4615556,16.1202222 38.6952222,18.7288889 38.6952222,22.5415556 C38.6952222,26.316 41.4615556,28.9628889 44.6722222,28.9628889 C47.8828889,28.9628889 50.6492222,26.3112222 50.6492222,22.5415556 Z" id="Shape" fill-rule="nonzero"></path>
                    <path d="M78.2361111,22.5415556 C78.2361111,28.6427778 73.4631111,33.1386667 67.6055556,33.1386667 C61.748,33.1386667 56.975,28.6427778 56.975,22.5415556 C56.975,16.4021111 61.748,11.9444444 67.6055556,11.9444444 C73.4631111,11.9444444 78.2361111,16.3973333 78.2361111,22.5415556 Z M73.5825556,22.5415556 C73.5825556,18.7288889 70.8162222,16.1202222 67.6055556,16.1202222 C64.3948889,16.1202222 61.6285556,18.7288889 61.6285556,22.5415556 C61.6285556,26.316 64.3948889,28.9628889 67.6055556,28.9628889 C70.8162222,28.9628889 73.5825556,26.3112222 73.5825556,22.5415556 Z" id="Shape" fill-rule="nonzero"></path>
                    <path d="M100.213889,12.5846667 L100.213889,31.6097778 C100.213889,39.4357778 95.5985556,42.6321111 90.1423333,42.6321111 C85.0062222,42.6321111 81.915,39.1968889 80.7492222,36.3875556 L84.8007778,34.701 C85.5222222,36.4257778 87.29,38.4611111 90.1375556,38.4611111 C93.6301111,38.4611111 95.7944444,36.3063333 95.7944444,32.25 L95.7944444,30.7258889 L95.632,30.7258889 C94.5904444,32.0111111 92.5837778,33.1338889 90.0515556,33.1338889 C84.753,33.1338889 79.8987778,28.5185556 79.8987778,22.5797778 C79.8987778,16.598 84.753,11.9444444 90.0515556,11.9444444 C92.579,11.9444444 94.5856667,13.0672222 95.632,14.3142222 L95.7944444,14.3142222 L95.7944444,12.5894444 L100.213889,12.5894444 L100.213889,12.5846667 Z M96.1241111,22.5797778 C96.1241111,18.8483333 93.6348889,16.1202222 90.4672222,16.1202222 C87.2565556,16.1202222 84.5666667,18.8483333 84.5666667,22.5797778 C84.5666667,26.273 87.2565556,28.9628889 90.4672222,28.9628889 C93.6348889,28.9628889 96.1241111,26.273 96.1241111,22.5797778 Z" id="Shape" fill-rule="nonzero"></path>
                    <polygon id="Path" points="107.5 1.43333333 107.5 32.4888889 102.961111 32.4888889 102.961111 1.43333333"></polygon>
                    <path d="M125.187333,26.0293333 L128.799333,28.4373333 C127.633556,30.1621111 124.824222,33.1338889 119.97,33.1338889 C113.95,33.1338889 109.454111,28.4803333 109.454111,22.5367778 C109.454111,16.2348889 113.988222,11.9396667 119.449222,11.9396667 C124.948444,11.9396667 127.638333,16.3161111 128.517444,18.6811111 L129,19.8851111 L114.833889,25.7522222 C115.918444,27.8783333 117.605,28.9628889 119.97,28.9628889 C122.339778,28.9628889 123.983333,27.7971111 125.187333,26.0293333 Z M114.069444,22.2166667 L123.539,18.2845556 C123.018222,16.9611111 121.451111,16.039 119.606889,16.039 C117.241889,16.039 113.95,18.1268889 114.069444,22.2166667 L114.069444,22.2166667 Z" id="Shape" fill-rule="nonzero"></path>
                    <path d="M16.8607778,19.7847778 L16.8607778,15.2888889 L32.0111111,15.2888889 C32.1592222,16.0724444 32.2356667,16.9993333 32.2356667,18.0026667 C32.2356667,21.3757778 31.3135556,25.5467778 28.3417778,28.5185556 C25.4512222,31.5285556 21.758,33.1338889 16.8655556,33.1338889 C7.79733333,33.1338889 0.172,25.7474444 0.172,16.6792222 C0.172,7.611 7.79733333,0.224555556 16.8655556,0.224555556 C21.8822222,0.224555556 25.456,2.193 28.1411111,4.75866667 L24.9686667,7.93111111 C23.0432222,6.12511111 20.4345556,4.72044444 16.8607778,4.72044444 C10.2387778,4.72044444 5.05966667,10.0572222 5.05966667,16.6792222 C5.05966667,23.3012222 10.2387778,28.638 16.8607778,28.638 C21.156,28.638 23.6022222,26.9132222 25.1693333,25.3461111 C26.4402222,24.0752222 27.2763333,22.2596667 27.606,19.78 L16.8607778,19.7847778 Z" id="Path"></path>
                </g>
            </g>
        </g>
    </g>
</svg>