<?xml version="1.0" encoding="UTF-8"?>
<svg width="44px" height="43px" viewBox="0 0 44 43" version="1.1" xmlns="http://www.w3.org/2000/svg" xmlns:xlink="http://www.w3.org/1999/xlink">
    <!-- Generator: sketchtool 53 (72520) - https://sketchapp.com -->
    <title>A8B6E370-E24E-4EB1-9647-3F75E2FB5ACE</title>
    <desc>Created with sketchtool.</desc>
    <g id="Portfolio-Website" stroke="none" stroke-width="1" fill="none" fill-rule="evenodd">
        <g id="Desktop" transform="translate(-800.000000, -2440.000000)" fill="#979797" fill-rule="nonzero">
            <g id="About" transform="translate(250.000000, 1927.000000)">
                <g id="Dropbox" transform="translate(550.000000, 513.000000)">
                    <path d="M21.9973947,7.43852422 L35.1036053,15.7985459 L21.9973947,24.1585676 L8.95689474,15.7985459 L21.9973947,7.43852422 Z M35.6524474,29.5561992 L30.2960263,33.0668586 L21.9976842,26.9459166 L13.3479211,33.0344542 L8.34263158,29.8747451 L8.34263158,33.5934285 L21.7782632,42.3703663 L35.6527368,33.9446681 L35.6527368,29.5561992 L35.6524474,29.5561992 Z M35.1036053,15.7985459 L43.9947895,8.42598759 L31.152,2.05577182e-15 L21.9973947,7.43852422 L13.2379211,0 L0,8.2943451 L8.95689474,15.7985459 L0.856263158,22.3812493 L13.4356316,30.6096284 L21.9973947,24.1585676 L30.4274474,30.6096284 L43.2702368,22.0522877 L35.1036053,15.7985459 Z" id="Shape"></path>
                </g>
            </g>
        </g>
    </g>
</svg>